<?xml version="1.0" encoding="UTF-8"?><svg id="Camada_2" xmlns="http://www.w3.org/2000/svg" viewBox="0 0 173.89 48.56"><g id="Camada_1-2"><g><path id="Caminho_8901" d="M1.09,21.65L21.66,1.11c1.44-1.46,3.79-1.48,5.25-.04l.04,.04,20.54,20.54c1.45,1.45,1.45,3.81,0,5.27l-20.54,20.54c-1.44,1.46-3.79,1.48-5.25,.04l-.04-.04L1.09,26.92c-1.45-1.45-1.45-3.81,0-5.27" style="fill:none;"/><path id="Caminho_8902" d="M24.29,47.71c-.76,0-1.49-.31-2.04-.84L1.7,26.3c-.53-.54-.83-1.26-.84-2.02l8.85,.5,.57,9.65,.55-9.58,12.17,.73,.68,11.46-8.81,.52,8.85,.52,.57,9.62Z" style="fill:currentColor; fill-rule:evenodd;"/><path id="Caminho_8903" d="M34.48,38.7l-8.15,8.17c-.55,.53-1.28,.84-2.04,.84l.57-9.56,9.62,.54Zm13.23-14.41c0,.76-.3,1.49-.84,2.02l-7.4,7.42-.52-8.94,8.76-.5Zm-10.69,11.89l-.09,.09-12.01,.7,.68-11.4,12.08-.7-.66,11.31Z" style="fill:currentColor; fill-rule:evenodd;"/><path id="Caminho_8904" d="M24.29,.86c.76,0,1.5,.31,2.04,.84l20.54,20.56c.54,.53,.85,1.26,.84,2.02l-8.83-.5-.57-9.65-.57,9.58-12.14-.73-.68-11.46,8.81-.52-8.88-.52-.56-9.62Z" style="fill:currentColor; fill-rule:evenodd;"/><path id="Caminho_8905" d="M1.7,22.26l7.42-7.42,.52,8.94-8.78,.5c0-.76,.31-1.48,.84-2.02M11.58,12.39l.07-.09,12.01-.7-.66,11.4-12.1,.7,.68-11.31Zm2.52-2.52L22.25,1.69c.55-.53,1.28-.83,2.04-.84l-.55,9.56-9.65-.54Z" style="fill:currentColor; fill-rule:evenodd;"/><path id="Caminho_8906" d="M171.56,21.72c-1.75-1.6-4.08-2.43-6.45-2.29h-.02c-2.35-.12-4.64,.71-6.38,2.29-1.62,1.64-2.47,3.88-2.36,6.17-.13,2.31,.7,4.58,2.29,6.26,1.71,1.58,3.99,2.4,6.31,2.27h.16c2.33,.11,4.62-.68,6.38-2.22,1.64-1.6,2.51-3.82,2.38-6.11,.14-2.35-.7-4.66-2.32-6.38m-6.4,11.21h-.04c-2.72-.02-4.11-1.68-4.11-4.99s1.34-5.02,4.02-5.02h.09c2.72,.05,4.11,1.7,4.11,5.02s-1.36,4.99-4.06,4.99m-12.17,3.27h-4.56V19.65h4.56v16.55Zm0-18.25h-4.56v-4.4h4.56v4.4Zm-8.1,18.25h-6.22c-1.34,.05-2.67-.12-3.95-.5-1.01-.35-1.91-.96-2.61-1.77-1.47-1.71-2.23-3.92-2.13-6.17,0-2.86,.84-5.02,2.54-6.47,1.27-1.09,3.31-1.63,6.15-1.63h6.22v3.54h-5.43c-1.33-.12-2.65,.27-3.7,1.09-.85,.99-1.25,2.29-1.13,3.59-.13,1.34,.32,2.67,1.24,3.66,1.18,.86,2.63,1.26,4.09,1.13h4.93v3.54Zm-21.63-22.65l-4.45,4.27h-2.66l2.93-4.27h4.18Zm2.09,7.94c-.78-.88-1.84-1.47-3-1.66-1.17-.15-2.36-.21-3.54-.18h-7.67v3.54h7.67c.95-.09,1.9,.12,2.72,.59,.56,.54,.84,1.31,.75,2.09v.27h-5.58c-1.26-.06-2.52,.07-3.74,.36-.91,.3-1.69,.92-2.18,1.75-.57,.9-.86,1.95-.84,3.02-.09,1.58,.63,3.1,1.91,4.04,.77,.51,1.66,.81,2.59,.86,.36,.02,1.29,.02,2.82,.02h9.6v-9.33c0-2.43-.5-4.22-1.5-5.38m-3.06,11.17h-5.27c-1.63,0-2.45-.48-2.45-1.45s.57-1.54,1.7-1.54h6.02v3Zm-14.55,3.54h-3.31c-2,0-3.4-.45-4.22-1.38-.84-.93-1.25-2.54-1.25-4.83v-6.79h-2.88v-3.54h2.88v-6.11h4.56v6.11h4.22v3.54h-4.22v5.99c-.08,.96,.07,1.93,.45,2.81,.51,.51,1.23,.76,1.95,.66h1.82v3.55Zm-13.35-5.2c0,1.01-.26,2.01-.77,2.88-.41,.82-1.08,1.49-1.91,1.88-1.21,.37-2.47,.51-3.72,.43h-9.4v-3.54h8.1c.7,.01,1.41,0,2.11-.07,.66-.03,1.17-.59,1.14-1.25,0-.04,0-.07,0-.11,.07-.62-.3-1.21-.89-1.43-.62-.14-1.25-.19-1.88-.16h-2.75c-1.47,.12-2.94-.24-4.2-1.02-1.25-1.01-1.94-2.56-1.85-4.16-.07-1.57,.64-3.08,1.91-4.02,1.12-.63,2.4-.91,3.68-.79h9.69v3.54h-8.06c-.59-.03-1.17,.02-1.75,.14-.52,.22-.84,.75-.77,1.32-.08,.65,.32,1.26,.95,1.45,.66,.15,1.33,.21,2,.18h2.65c1.5-.1,3,.32,4.22,1.2,1.02,.87,1.58,2.18,1.5,3.52m-18.84,5.2h-6.29c-1.89,.06-3.79-.13-5.63-.57-1.26-.34-2.41-1.03-3.31-1.97-2-2.09-3-5.02-3-8.78,0-4.15,1.27-7.33,3.84-9.49,.76-.65,1.64-1.13,2.59-1.43,1.19-.31,2.41-.44,3.63-.41h8.17v4.04h-6.29c-1.21-.05-2.41,.07-3.59,.34-.76,.22-1.43,.68-1.91,1.32-.31,.4-.55,.85-.68,1.34-.16,.77-.26,1.55-.3,2.34h12.76v4.02h-12.75c.16,1.93,.73,3.29,1.72,4.06,.98,.77,2.63,1.16,4.95,1.16h6.08v4.04Z" style="fill:currentColor;"/></g></g></svg>